<svg xmlns="http://www.w3.org/2000/svg" width="400" height="225" viewBox="0 0 400 225"><rect width="100%" height="100%" fill="#e8e8e8"/><path fill="#999" d="M123.025 127.205q.85 0 1.5.66l4.08 4.42q-3.39 4.2-8.33 6.43-4.95 2.24-11.88 2.24-6.2 0-11.15-2.12-4.94-2.12-8.45-5.89-3.5-3.77-5.37-9.01t-1.87-11.44q0-6.27 2.01-11.49 2-5.21 5.64-8.99 3.63-3.77 8.68-5.87 5.04-2.1 11.16-2.1 6.09 0 10.8 2.01 4.72 2 8.03 5.23l-3.47 4.81q-.3.47-.78.81-.49.35-1.33.35-.58 0-1.2-.33-.61-.33-1.34-.81-.74-.48-1.7-1.06-.96-.57-2.23-1.05-1.27-.49-2.95-.81-1.67-.33-3.87-.33-3.73 0-6.83 1.33t-5.33 3.85-3.47 6.16q-1.23 3.64-1.23 8.29 0 4.7 1.33 8.36t3.6 6.16 5.35 3.83 6.62 1.33q2.12 0 3.83-.23 1.72-.23 3.16-.73 1.44-.51 2.73-1.29 1.29-.79 2.56-1.95.39-.35.81-.56.43-.21.89-.21m28.68-26.99q4.39 0 7.99 1.43 3.6 1.42 6.16 4.04t3.95 6.39q1.38 3.77 1.38 8.43 0 4.7-1.38 8.47-1.39 3.78-3.95 6.43-2.56 2.66-6.16 4.08-3.6 1.43-7.99 1.43-4.43 0-8.05-1.43-3.61-1.42-6.17-4.08-2.56-2.65-3.97-6.43-1.41-3.77-1.41-8.47 0-4.66 1.41-8.43t3.97-6.39 6.17-4.04q3.62-1.43 8.05-1.43m0 33.38q4.93 0 7.3-3.31 2.36-3.31 2.36-9.7t-2.36-9.74q-2.37-3.35-7.3-3.35-5 0-7.41 3.37t-2.41 9.72 2.41 9.68 7.41 3.33m51.28-32.76h9.51v39.5h-5.81q-1.89 0-2.39-1.73l-.65-3.16q-2.43 2.46-5.35 3.99-2.93 1.52-6.9 1.52-3.23 0-5.71-1.1-2.49-1.1-4.18-3.1t-2.56-4.76q-.87-2.75-.87-6.06v-25.1h9.51v25.1q0 3.62 1.68 5.6 1.67 1.99 5.02 1.99 2.47 0 4.62-1.1 2.16-1.1 4.08-3.02zm27.3 2.39.58 4.46q1.85-3.54 4.39-5.56t6-2.02q2.74 0 4.39 1.19l-.61 7.12q-.2.7-.56.99-.37.28-.98.28-.58 0-1.72-.19-1.13-.19-2.21-.19-1.58 0-2.81.46t-2.22 1.33q-.98.87-1.73 2.1t-1.4 2.81v24.33h-9.51v-39.5h5.58q1.46 0 2.04.52t.77 1.87m46.58 1.88-2.15 3.43q-.39.62-.81.87t-1.08.25q-.69 0-1.48-.39-.79-.38-1.83-.87-1.04-.48-2.37-.86-1.32-.39-3.13-.39-2.81 0-4.41 1.2-1.6 1.19-1.6 3.11 0 1.28.83 2.14.83.87 2.19 1.52 1.37.66 3.1 1.18t3.52 1.13q1.79.62 3.53 1.41 1.73.79 3.1 2 1.36 1.21 2.19 2.91.83 1.69.83 4.08 0 2.85-1.02 5.25-1.02 2.41-3.02 4.16-2.01 1.75-4.95 2.73-2.95.99-6.8.99-2.04 0-3.98-.37-1.95-.37-3.74-1.02t-3.31-1.54-2.67-1.93l2.19-3.61q.43-.66 1-1.01.58-.34 1.47-.34.88 0 1.67.5t1.83 1.08q1.04.57 2.44 1.08 1.41.5 3.57.5 1.69 0 2.9-.41 1.21-.4 2-1.06.79-.65 1.16-1.52.36-.86.36-1.79 0-1.38-.82-2.27-.83-.89-2.2-1.54-1.36-.65-3.12-1.17-1.75-.52-3.58-1.14t-3.58-1.44q-1.75-.83-3.12-2.1-1.36-1.27-2.19-3.12t-.83-4.47q0-2.42.96-4.62.97-2.19 2.83-3.83 1.87-1.63 4.66-2.62 2.79-.98 6.45-.98 4.08 0 7.43 1.35t5.58 3.54m15.1 10.94h17.94q0-1.85-.52-3.49-.52-1.63-1.56-2.87-1.04-1.23-2.64-1.94t-3.71-.71q-4.12 0-6.49 2.35-2.37 2.34-3.02 6.66m24.25 5.73h-24.45q.24 3.04 1.08 5.26.85 2.21 2.24 3.66 1.38 1.44 3.29 2.15 1.9.71 4.21.71t3.99-.53q1.67-.54 2.92-1.2 1.25-.65 2.2-1.19.94-.54 1.83-.54 1.19 0 1.77.88l2.73 3.47q-1.58 1.85-3.54 3.1t-4.1 2-4.35 1.06q-2.22.31-4.29.31-4.12 0-7.67-1.37-3.54-1.37-6.16-4.04-2.61-2.68-4.12-6.62-1.5-3.95-1.5-9.15 0-4.04 1.31-7.6t3.76-6.2q2.44-2.64 5.96-4.18 3.53-1.54 7.95-1.54 3.74 0 6.9 1.2 3.15 1.19 5.42 3.48 2.28 2.29 3.56 5.62 1.29 3.33 1.29 7.61 0 2.15-.46 2.9t-1.77.75"/></svg>